<svg width="48" height="10" viewBox="0 0 48 10" fill="none" xmlns="http://www.w3.org/2000/svg">
<path d="M21.7208 6.144C21.6008 7.032 21.2328 7.704 20.6168 8.16C20.0808 8.56 19.4088 8.76 18.6008 8.76C17.5448 8.76 16.7128 8.424 16.1048 7.752C15.5768 7.168 15.3128 6.428 15.3128 5.532C15.3128 4.452 15.6528 3.608 16.3328 3C16.9328 2.464 17.6928 2.196 18.6128 2.196C19.5488 2.196 20.2968 2.444 20.8568 2.94C21.3528 3.38 21.6248 3.94 21.6728 4.62H19.6928C19.5888 3.996 19.2408 3.684 18.6488 3.684C17.8088 3.684 17.3888 4.296 17.3888 5.52C17.3888 6.664 17.7968 7.236 18.6128 7.236C19.2608 7.236 19.6408 6.872 19.7528 6.144H21.7208Z" fill="black"/>
<path d="M25.6675 8.76C24.6195 8.76 23.7875 8.416 23.1715 7.728C22.6355 7.128 22.3675 6.376 22.3675 5.472C22.3675 4.432 22.7115 3.604 23.3995 2.988C23.9995 2.46 24.7515 2.196 25.6555 2.196C26.7115 2.196 27.5475 2.536 28.1635 3.216C28.6915 3.8 28.9555 4.548 28.9555 5.46C28.9555 6.508 28.6115 7.34 27.9235 7.956C27.3235 8.492 26.5715 8.76 25.6675 8.76ZM25.6435 3.684C25.2595 3.684 24.9635 3.84 24.7555 4.152C24.5475 4.464 24.4435 4.904 24.4435 5.472C24.4435 6.672 24.8515 7.272 25.6675 7.272C26.4835 7.272 26.8915 6.668 26.8915 5.46C26.8915 4.276 26.4755 3.684 25.6435 3.684Z" fill="black"/>
<path d="M31.9846 2.364V3.192C32.4486 2.528 33.0886 2.196 33.9046 2.196C34.7286 2.196 35.3126 2.528 35.6566 3.192C36.1606 2.528 36.8206 2.196 37.6366 2.196C38.3566 2.196 38.9126 2.42 39.3046 2.868C39.6406 3.268 39.8086 3.796 39.8086 4.452V8.592H37.7686V4.98C37.7686 4.236 37.4806 3.864 36.9046 3.864C36.5126 3.864 36.2326 4.024 36.0646 4.344C35.9766 4.512 35.9326 4.788 35.9326 5.172V8.592H33.8926V4.896C33.8926 4.208 33.6166 3.864 33.0646 3.864C32.3926 3.864 32.0566 4.3 32.0566 5.172V8.592H30.0166V2.364H31.9846Z" fill="black"/>
<path d="M43.2011 0V3.084C43.6891 2.476 44.2971 2.172 45.0251 2.172C45.8811 2.172 46.5531 2.508 47.0411 3.18C47.4651 3.756 47.6771 4.496 47.6771 5.4C47.6771 6.488 47.3891 7.34 46.8131 7.956C46.3091 8.492 45.6651 8.76 44.8811 8.76C44.1611 8.76 43.5771 8.46 43.1291 7.86V8.592H41.1611V0H43.2011ZM44.3771 3.78C44.0011 3.78 43.7011 3.928 43.4771 4.224C43.2531 4.52 43.1411 4.916 43.1411 5.412C43.1411 5.932 43.2491 6.344 43.4651 6.648C43.6891 6.944 43.9971 7.092 44.3891 7.092C44.7651 7.092 45.0611 6.944 45.2771 6.648C45.5011 6.344 45.6131 5.932 45.6131 5.412C45.6131 4.916 45.5011 4.52 45.2771 4.224C45.0531 3.928 44.7531 3.78 44.3771 3.78Z" fill="black"/>
<path d="M11 5.092L8.25 9.85514H2.75L0 5.092L2.75 0.328861H8.25L11 5.092Z" />
<path d="M7.67285 1.3291L9.84473 5.0918L7.67285 8.85547H3.32715L1.1543 5.0918L3.32715 1.3291H7.67285ZM38.0557 3.24121C38.289 3.29685 38.4384 3.3994 38.5469 3.52148C38.6922 3.69952 38.8086 3.97855 38.8086 4.45215V7.5918H38.7686V4.98047C38.7686 4.50738 38.6819 3.96832 38.3438 3.53125C38.2564 3.41838 38.1586 3.32273 38.0557 3.24121ZM34.1816 3.21973C34.3065 3.2416 34.3988 3.27579 34.4668 3.31445C34.572 3.37433 34.6752 3.47207 34.7686 3.65234L35.0508 4.19727C34.9542 4.51767 34.9326 4.86485 34.9326 5.17188V7.5918H34.8926V4.89648C34.8926 4.44515 34.8066 3.92087 34.4658 3.49609C34.379 3.38794 34.2828 3.29721 34.1816 3.21973ZM31.0566 7.5918H31.0166V6.32227L31.0566 6.26562V7.5918ZM45.9336 3.4541C46.0418 3.53916 46.1415 3.64237 46.2324 3.76758L46.2354 3.77246C46.5029 4.13596 46.6768 4.65289 46.6768 5.40039C46.6767 6.19674 46.4954 6.74082 46.2109 7.12012L46.085 7.27051C46.045 7.31303 46.0027 7.35252 45.96 7.38965C46.0026 7.34081 46.0457 7.2911 46.085 7.2373L46.084 7.23633C46.4723 6.7071 46.6133 6.06503 46.6133 5.41211C46.6133 4.77102 46.4677 4.14006 46.0742 3.62012C46.0298 3.56143 45.982 3.50685 45.9336 3.4541ZM16.5098 4.43066C16.4229 4.77935 16.3887 5.14965 16.3887 5.51953C16.3887 5.86585 16.4208 6.2163 16.5049 6.54785C16.3819 6.26492 16.3125 5.93239 16.3125 5.53223C16.3125 5.09 16.3832 4.72918 16.5098 4.43066ZM23.5693 4.41211C23.4808 4.75139 23.4434 5.11022 23.4434 5.47168C23.4434 5.80017 23.4704 6.13006 23.5381 6.44434C23.4283 6.16675 23.3672 5.84692 23.3672 5.47168C23.3672 5.05376 23.4386 4.7065 23.5693 4.41211ZM27.7969 4.50488C27.8985 4.77323 27.9551 5.08696 27.9551 5.45996C27.9551 5.82291 27.9008 6.13172 27.8037 6.39941C27.8655 6.0951 27.8916 5.77727 27.8916 5.45996C27.8916 5.13796 27.8644 4.81429 27.7969 4.50488ZM42.2012 1V4.74121C42.1908 4.7969 42.1813 4.85282 42.1738 4.90918L42.1611 4.89258V1H42.2012Z" stroke="black" stroke-width="2"/>
</svg>
