<svg xmlns="http://www.w3.org/2000/svg" viewBox="0 0 48 10" fill="none" xmlns:v="https://vecta.io/nano"><path d="M21.721 6.144c-.12.888-.488 1.56-1.104 2.016-.536.4-1.208.6-2.016.6-1.056 0-1.888-.336-2.496-1.008-.528-.584-.792-1.324-.792-2.22 0-1.08.34-1.924 1.02-2.532.6-.536 1.36-.804 2.28-.804.936 0 1.684.248 2.244.744.496.44.768 1 .816 1.68h-1.98c-.104-.624-.452-.936-1.044-.936-.84 0-1.26.612-1.26 1.836 0 1.144.408 1.716 1.224 1.716.648 0 1.028-.364 1.14-1.092h1.968zm3.947 2.616c-1.048 0-1.88-.344-2.496-1.032-.536-.6-.804-1.352-.804-2.256 0-1.04.344-1.868 1.032-2.484.6-.528 1.352-.792 2.256-.792 1.056 0 1.892.34 2.508 1.02.528.584.792 1.332.792 2.244 0 1.048-.344 1.88-1.032 2.496-.6.536-1.352.804-2.256.804zm-.024-5.076c-.384 0-.68.156-.888.468s-.312.752-.312 1.32c0 1.2.408 1.8 1.224 1.8s1.224-.604 1.224-1.812c0-1.184-.416-1.776-1.248-1.776zm6.341-1.32v.828c.464-.664 1.104-.996 1.92-.996.824 0 1.408.332 1.752.996.504-.664 1.164-.996 1.98-.996.72 0 1.276.224 1.668.672.336.4.504.928.504 1.584v4.14h-2.04V4.98c0-.744-.288-1.116-.864-1.116-.392 0-.672.16-.84.48-.088.168-.132.444-.132.828v3.42h-2.04V4.896c0-.688-.276-1.032-.828-1.032-.672 0-1.008.436-1.008 1.308v3.42h-2.04V2.364h1.968zM43.201 0v3.084c.488-.608 1.096-.912 1.824-.912.856 0 1.528.336 2.016 1.008.424.576.636 1.316.636 2.22 0 1.088-.288 1.94-.864 2.556-.504.536-1.148.804-1.932.804-.72 0-1.304-.3-1.752-.9v.732h-1.968V0h2.04zm1.176 3.78a1.07 1.07 0 0 0-.9.444c-.224.296-.336.692-.336 1.188 0 .52.108.932.324 1.236.224.296.532.444.924.444a1.04 1.04 0 0 0 .888-.444c.224-.304.336-.716.336-1.236 0-.496-.112-.892-.336-1.188a1.07 1.07 0 0 0-.9-.444z" fill="#000"/><path d="M11 5.092L8.25 9.855h-5.5L0 5.092 2.75.329h5.5L11 5.092z" fill="#fff"/><path d="M7.673 1.329l2.172 3.763-2.172 3.764H3.327L1.154 5.092l2.173-3.763h4.346zm30.383 1.912c.233.056.383.158.491.28.145.178.262.457.262.931v3.14h-.04V4.98c0-.473-.087-1.012-.425-1.449a1.69 1.69 0 0 0-.288-.29zm-3.874-.021c.125.022.217.056.285.095.105.06.208.158.302.338l.282.545c-.097.32-.118.668-.118.975v2.42h-.04V4.896c0-.451-.086-.976-.427-1.4a1.64 1.64 0 0 0-.284-.276zm-3.125 4.372h-.04v-1.27l.04-.057v1.326zm14.877-4.138a1.56 1.56 0 0 1 .299.313l.003.005c.267.363.441.88.441 1.628 0 .796-.181 1.34-.466 1.72l-.126.15c-.04.043-.082.082-.125.119l.125-.152-.001-.001c.388-.529.529-1.171.529-1.824 0-.641-.146-1.272-.539-1.792a2.29 2.29 0 0 0-.141-.166zm-29.424.977c-.087.349-.121.719-.121 1.089 0 .346.032.697.116 1.028-.123-.283-.192-.615-.192-1.016 0-.442.071-.803.197-1.102zm7.06-.019a4.21 4.21 0 0 0-.126 1.06c0 .328.027.658.095.973-.11-.278-.171-.597-.171-.973 0-.418.071-.765.202-1.06zm4.228.093c.102.268.158.582.158.955a2.73 2.73 0 0 1-.151.939 4.74 4.74 0 0 0 .088-.939 4.5 4.5 0 0 0-.095-.955zM42.201 1v3.741l-.027.168-.013-.017V1h.04z" stroke="#000" stroke-width="2"/></svg>